<svg id="Calque_1" data-name="Calque 1" xmlns="http://www.w3.org/2000/svg" xmlns:xlink="http://www.w3.org/1999/xlink" viewBox="0 0 1920 1080"><defs><style>.cls-1{fill:url(#Dégradé_sans_nom_430);}.cls-2{fill:#19afab;}.cls-3{opacity:0.52;}</style><radialGradient id="Dégradé_sans_nom_430" cx="1726.71" cy="384.88" fx="1680.8065999892851" r="150.49" gradientUnits="userSpaceOnUse"><stop offset="0" stop-color="#c3e99f"/><stop offset="0.14" stop-color="#bfe8a4"/><stop offset="0.31" stop-color="#b3e7b1"/><stop offset="0.48" stop-color="#9fe4c8"/><stop offset="0.61" stop-color="#8ce1de"/><stop offset="0.68" stop-color="#89e0de"/><stop offset="0.72" stop-color="#81ddde"/><stop offset="0.75" stop-color="#72d8dd"/><stop offset="0.78" stop-color="#5dd0dd"/><stop offset="0.81" stop-color="#42c6dc"/><stop offset="0.83" stop-color="#22bbdb"/><stop offset="0.84" stop-color="#15b6db"/></radialGradient></defs><title>planet2</title><circle class="cls-1" cx="1779.91" cy="394.9" r="78.53"/><path class="cls-2" d="M1810.11,347.83a5.75,5.75,0,0,1-4.56,1.85,6.33,6.33,0,0,1-5.92-7.31,5.66,5.66,0,0,1,2.75-4.07,6.78,6.78,0,0,0-1.72,4.18,6,6,0,0,0,5,6.17A6.82,6.82,0,0,0,1810.11,347.83Z"/><path class="cls-2" d="M1804.07,461.72a10,10,0,0,1-7.89,3,10.67,10.67,0,0,1-4.3-1.18,11.33,11.33,0,0,1-3.48-2.83,11.46,11.46,0,0,1-2.06-4,10.75,10.75,0,0,1-.26-4.44,10,10,0,0,1,4.56-7.11,11.56,11.56,0,0,0-3.22,7.25,10.49,10.49,0,0,0,8.9,11A11.48,11.48,0,0,0,1804.07,461.72Z"/><g class="cls-3"><path class="cls-2" d="M1714.28,417a5.82,5.82,0,0,1-4.54,1.72,6.27,6.27,0,0,1-5.81-7.17,5.79,5.79,0,0,1,2.62-4.08,6.55,6.55,0,0,0-1.85,4.16,6,6,0,0,0,5.12,6.32A6.61,6.61,0,0,0,1714.28,417Z"/></g><path class="cls-2" d="M1753,453.49a9.86,9.86,0,0,1-3.44,2,10.2,10.2,0,0,1-12-14.83,9.86,9.86,0,0,1,2.7-2.94,10.48,10.48,0,0,0-3.37,6.85,10.05,10.05,0,0,0,8.73,10.77A10.44,10.44,0,0,0,1753,453.49Z"/><g class="cls-3"><path class="cls-2" d="M1772.38,403.51a20.53,20.53,0,0,1-2.71,11.93,21.4,21.4,0,0,1-9.21,8.48,21.87,21.87,0,0,1-12.54,1.9,21.66,21.66,0,0,1-15.6-10.48,21.46,21.46,0,0,1-3-12.36,20.26,20.26,0,0,1,1.3-6.26c2.87-8.09,11-13.84,19.19-13.79a21.24,21.24,0,0,0-17.22,14.46,20,20,0,0,0-.94,5.68,18.71,18.71,0,0,0,.69,5.68,20,20,0,0,0,5.87,9.64,20.22,20.22,0,0,0,21.44,3.64,20.78,20.78,0,0,0,9-7.29A21.7,21.7,0,0,0,1772.38,403.51Z"/></g><path class="cls-2" d="M1745.27,349a9.26,9.26,0,0,1-1.59,6.42,9.68,9.68,0,0,1-12.44,3,9.84,9.84,0,0,1-4.61-12.14,9.7,9.7,0,0,1,11.28-6,9.25,9.25,0,0,1,5.44,3.75,9.29,9.29,0,0,0-11.67-2,8.86,8.86,0,0,0-3.86,4.71,8.82,8.82,0,0,0,10,11.56A9.28,9.28,0,0,0,1745.27,349Z"/><path class="cls-2" d="M1720.68,367.62a10,10,0,0,0-1.11,2.88,4.46,4.46,0,0,0,.31,2.87,6.15,6.15,0,0,0,2,2.14c.44.25.88.52,1.34.76s1,.42,1.43.67c-.52-.1-1-.24-1.55-.37a14.67,14.67,0,0,1-1.49-.62,5.61,5.61,0,0,1-2.34-2.29,4.45,4.45,0,0,1-.22-3.28A6.78,6.78,0,0,1,1720.68,367.62Z"/></svg>