<svg id="Calque_1" data-name="Calque 1" xmlns="http://www.w3.org/2000/svg" xmlns:xlink="http://www.w3.org/1999/xlink" viewBox="0 0 1920 1080"><defs><style>.cls-1{fill:url(#Dégradé_sans_nom_448);}.cls-2{fill:url(#Dégradé_sans_nom_448-2);}</style><linearGradient id="Dégradé_sans_nom_448" x1="1618.33" y1="43.47" x2="1680.19" y2="111.81" gradientUnits="userSpaceOnUse"><stop offset="0" stop-color="#efefac"/><stop offset="0.13" stop-color="#eccf90"/><stop offset="0.3" stop-color="#e8ae73"/><stop offset="0.43" stop-color="#e69961"/><stop offset="0.53" stop-color="#e5925a"/><stop offset="0.61" stop-color="#e58a53"/><stop offset="0.74" stop-color="#e4753e"/><stop offset="0.9" stop-color="#e3531d"/><stop offset="1" stop-color="#e23a05"/></linearGradient><linearGradient id="Dégradé_sans_nom_448-2" x1="1625.26" y1="354.89" x2="1728.84" y2="434.43" gradientTransform="translate(67.39 -544.28) rotate(8.56)" xlink:href="#Dégradé_sans_nom_448"/></defs><title>planet3</title><g id="Planet1"><circle class="cls-1" cx="1649.26" cy="77.64" r="46.09"/><path class="cls-2" d="M1604,72.35c-15.44,12.56-23.33,26.2-19.21,36.33,6.69,16.46,42.59,17.42,80.18,2.13s62.64-41,55.94-57.49c-4.42-10.86-21.53-15-43.44-12.13a55.57,55.57,0,0,0,6.08,5.52c13.58-.16,23.65,3.52,26.68,10.95,5.64,13.88-15.47,35.58-47.16,48.47s-62,12.08-67.6-1.8c-2.63-6.46.54-14.62,7.89-22.8"/></g></svg>