<svg id="Calque_1" data-name="Calque 1" xmlns="http://www.w3.org/2000/svg" xmlns:xlink="http://www.w3.org/1999/xlink" viewBox="0 0 1920 1080"><defs><style>.cls-1{fill:url(#Dégradé_sans_nom_403);}.cls-2{fill:url(#Dégradé_sans_nom_403-2);}</style><linearGradient id="Dégradé_sans_nom_403" x1="1194.31" y1="173.22" x2="1320.43" y2="333.09" gradientUnits="userSpaceOnUse"><stop offset="0" stop-color="#5c98ec"/><stop offset="0.03" stop-color="#6691e4"/><stop offset="0.13" stop-color="#8879c7"/><stop offset="0.23" stop-color="#a266b1"/><stop offset="0.34" stop-color="#b559a1"/><stop offset="0.45" stop-color="#c05197"/><stop offset="0.57" stop-color="#c44e94"/><stop offset="0.67" stop-color="#c34a8d"/><stop offset="0.83" stop-color="#c0407a"/><stop offset="1" stop-color="#bc315c"/></linearGradient><linearGradient id="Dégradé_sans_nom_403-2" x1="1213.28" y1="229.64" x2="1463.31" y2="373.57" xlink:href="#Dégradé_sans_nom_403"/></defs><title>planet1</title><g id="Planet1"><circle class="cls-1" cx="1258.72" cy="254.87" r="101.81"/><path class="cls-2" d="M1158.19,258.18c-29.59,32.5-42.35,64.9-30,85.67,20,33.76,98.78,24,175.87-21.72s123.33-110.22,103.28-144c-13.21-22.27-51.94-25.62-98.89-12.21A122.06,122.06,0,0,0,1323.54,176c29.6-4.81,52.83-.08,61.87,15.16,16.9,28.47-22.08,82.81-87.07,121.39s-131.36,46.77-148.26,18.3c-7.87-13.25-3.62-32.12,9.73-52.39"/></g></svg>