<svg id="Calque_1" data-name="Calque 1" xmlns="http://www.w3.org/2000/svg" viewBox="0 0 1920 1080"><defs><style>.cls-1{fill:#fff;}.cls-2{fill:#c6c6c6;}.cls-3{fill:#141419;}.cls-4{fill:#fb4d53;}</style></defs><title>spaceman</title><path class="cls-1" d="M1638.41,248.72,1634,263.37a27.3,27.3,0,0,1-4.12,2.45,17.09,17.09,0,0,1-5.33,1.66c-4.65.51-40.91-15.54-46.94-19.3s-2.94-7.4-2.94-7.4l2.12-4.78,2.85-10.84Z"/><path class="cls-2" d="M1626,267.2a13.94,13.94,0,0,1-4.85,1.26c-4.29.19-39-17.21-44.8-21.14s-3.17-7.19-3.17-7.19l1.68-4.41.29-3.71,3.45.27-2.91,6.45s-1.88,3.59,2.49,5.8C1581.93,246.45,1616.07,262.86,1626,267.2Z"/><path class="cls-1" d="M1593.87,197.17a23.7,23.7,0,0,1-2.63,33.43,23.71,23.71,0,1,1,2.63-33.43Z"/><path class="cls-3" d="M1593.87,197.17a23.93,23.93,0,0,1,3.31,5.06,7.91,7.91,0,0,1-1.25,6.05c-6,8.6-9.29,16.36-17.91,17.28s-14.36-7.53-15.78-13.25,3.45-13.34,6.36-16.32c1.27-1.31,2.49-2.66,3.47-3.78a10.44,10.44,0,0,1,5.36-3.27l.07,0A23.65,23.65,0,0,1,1593.87,197.17Z"/><path class="cls-1" d="M1683,239.14c-9.28,5.94-14.34,5.81-15,4.42s-7.75-10.22-8.81-10.3-12.76,5.57-15.51,8.59a2.93,2.93,0,0,0-.42.57c-1.56,2.82-.83,3.68-.83,3.68s9.4-.6,11.8-.68,5.8,4.46,6.45,6.38,1.65,9.47,2.1,14.05-.3,7.18,1.29,7.31a14.67,14.67,0,0,1,5.71,2,8.35,8.35,0,0,1,2,2.26,16.38,16.38,0,0,1,1.82,3.91c.86,2.73-2.58,5.67-4.21,6.07s-8.53-.13-14-1.36-5.68-2.59-6-4.75,1-5.8,1-5.8a23.06,23.06,0,0,1-1.79-7.88c-.4-5.1-3.17-3.72-3.17-3.72s-9,1.7-11.89,1.74-8.36-2.26-8.36-2.26-27.12-15.38-28.24-14l0,.06c-.41,1.84,1.59,7.07,2,8.7s4.77,3.85,4.77,3.85l9,4.71a9.18,9.18,0,0,1,8.4,5.2c2.77,5.55-3,8-6,8.07s-19.81-9.56-19.81-9.56c-6.65-3.73-7.54-9.4-10.59-18.19s.72-12.49,2-15.59S1600.82,212,1600.82,212c2.55-4,4.19-3.78,4.19-3.78l13.89-3.45c4.9-1.22,4.25-3.13,4.25-3.13s1.85-10,2.64-13.15a7.3,7.3,0,0,1,7.07-5.05c2.65.21,4.08,2.46,4.77,3.85a4.5,4.5,0,0,1-.62,4.49,2.93,2.93,0,0,0-1.27,2.57c.2.81-1.86,13.47-4,16.77s-7.27,4.24-8.91,4.64-4.61,1-4.12,1.55,5.91,2.86,7.71,3.8a3.66,3.66,0,0,0,2.9.5,1.33,1.33,0,0,1,1.67-.94c1.31.37,6.74,2.67,7.22,3.24s-1.8,2.53.12,1.88,12.88-7.54,17-9.61,8,.62,9.23,1.52,9.49,11.69,9.49,11.69,3.35-1.87,5.76-2c1,0,3.37,1,5.06,2.62C1687.24,232.28,1688.32,235.69,1683,239.14Z"/><path class="cls-2" d="M1671.67,277.47a16.38,16.38,0,0,1,1.82,3.91c.86,2.73-2.58,5.67-4.21,6.07-1.21.3-5.27.09-9.53-.54-1.52-.22-3.06-.5-4.51-.82-5.51-1.24-5.68-2.59-6-4.75a6.92,6.92,0,0,1,0-2.12,20.11,20.11,0,0,1,1-3.68,23.06,23.06,0,0,1-1.79-7.88c-.4-5.1-3.17-3.72-3.17-3.72s-9,1.7-11.89,1.74-8.36-2.26-8.36-2.26-27.12-15.38-28.24-14l-.25-4,18.76,9.22.37-1.31,9.3,3.94-.41,1.83s5.26,4.42,10.7,3.24,14.17-3.69,15.22-.14,1.17,8.91,2,11.64,2.4,6.87,6.72,9.61,10.24,2.14,10.24,2.14,4.5-2.85,2.67-6.74A4.16,4.16,0,0,1,1671.67,277.47Z"/><polygon class="cls-2" points="1618.27 246.88 1627.32 250.52 1624.94 257.01 1625.48 257.05 1637.77 226.25 1637.24 226.21 1636.59 227.75 1628.06 224.15 1627.73 224.92 1636.54 228.29 1634.54 233.47 1625.48 229.82 1625.11 231.13 1633.92 234.49 1627.94 249.5 1618.88 245.85 1618.27 246.88"/><path class="cls-2" d="M1683,239.14c-9.28,5.94-14.34,5.81-15,4.42s-7.75-10.22-8.81-10.3-12.76,5.57-15.51,8.59c.46-1,1.64-2.68,4.57-5.18,5.72-4.89,8.46-5.74,10.09-6.15s4.2.87,5.63,3.12,4,6.45,7.75,6.74,9.1-.35,11.72-3.08c1.64-1.72,1.73-5,1.56-7.27C1687.24,232.28,1688.32,235.69,1683,239.14Z"/><polygon class="cls-2" points="1623.75 238.1 1629.97 239.69 1629.81 240.5 1629.52 241.87 1623.09 239.86 1623.48 238.75 1623.57 238.48 1623.75 238.1"/><polygon class="cls-4" points="1623.44 238.74 1626.31 232.82 1631.74 235.12 1629.69 240.83 1623.44 238.74"/><path class="cls-2" d="M1618.09,229.58c0,.2,0,.4,0,.59a12.07,12.07,0,0,1-5,8c-1.39.69-8-3-8.48-4.14a4.2,4.2,0,0,1,0-1.84c.06-.37.14-.77.23-1.17l5.2-7.07a17.07,17.07,0,0,1,4.59.92C1616.33,226.21,1618,227.93,1618.09,229.58Z"/><path class="cls-1" d="M1618.09,229.58a2.35,2.35,0,0,1,0,.59,1.9,1.9,0,0,1-.11.39c-1.35,3.64-3.64,5.59-6,5.67-2,.06-6-3-7.27-4,.06-.37.14-.77.23-1.17l5.2-7.07a17.07,17.07,0,0,1,4.59.92C1616.33,226.21,1618,227.93,1618.09,229.58Z"/><circle class="cls-4" cx="1609.08" cy="231.2" r="1.13"/><circle class="cls-4" cx="1612.43" cy="232.8" r="1.13"/><circle class="cls-4" cx="1611.17" cy="228.43" r="1.13"/><circle class="cls-4" cx="1614.51" cy="230.03" r="1.13"/><path class="cls-2" d="M1573.77,236.2a23.73,23.73,0,0,1-20.88-29.63C1553.74,214.41,1557.57,228.78,1573.77,236.2Z"/></svg>