<svg id="Calque_1" data-name="Calque 1" xmlns="http://www.w3.org/2000/svg" viewBox="0 0 1920 1080"><defs><style>.cls-1{fill:#fff;}</style></defs><title>background</title><path class="cls-1" d="M0,0V1080H1920V0ZM1859,405c-28.34,57.72-70.3,98.71-121,126.24a324.18,324.18,0,0,1-30,14.34,362.08,362.08,0,0,1-34.25,12.3q-11.21,3.42-22.74,6.21-7.44,1.81-15,3.36c-31,6.38-63.57,9.65-97,10.28-48.85.92-99.56-3.8-150-12.73-101-17.88-158.78-104-164-199.19a262.71,262.71,0,0,1,53-173.06A268.56,268.56,0,0,1,1346,130c185-120,366-74,366-74C1806,65,1941,238,1859,405Z"/></svg>