<svg id="Calque_1" data-name="Calque 1" xmlns="http://www.w3.org/2000/svg" xmlns:xlink="http://www.w3.org/1999/xlink" viewBox="0 0 1920 1080"><defs><style>.cls-1{fill:url(#Dégradé_sans_nom_334);}.cls-2{fill:#fff;opacity:0.4;}</style><linearGradient id="Dégradé_sans_nom_334" x1="1705.94" y1="553.46" x2="1415.16" y2="109.24" gradientUnits="userSpaceOnUse"><stop offset="0" stop-color="#6549aa"/><stop offset="0.19" stop-color="#684cab"/><stop offset="0.29" stop-color="#6d50ae"/><stop offset="0.35" stop-color="#684da6"/><stop offset="0.46" stop-color="#594691"/><stop offset="0.59" stop-color="#413a6e"/><stop offset="0.64" stop-color="#373560"/><stop offset="0.76" stop-color="#2f2e55"/><stop offset="0.92" stop-color="#20203f"/></linearGradient></defs><title>bg</title><path class="cls-1" d="M1859,405c-28.34,57.72-70.3,98.71-121,126.24a324.18,324.18,0,0,1-30,14.34,362.08,362.08,0,0,1-34.25,12.3q-11.21,3.42-22.74,6.21-7.44,1.81-15,3.36c-31,6.38-63.57,9.65-97,10.28-48.85.92-99.56-3.8-150-12.73-101-17.88-158.78-104-164-199.19a262.71,262.71,0,0,1,53-173.06A268.56,268.56,0,0,1,1346,130c185-120,366-74,366-74C1806,65,1941,238,1859,405Z"/><circle class="cls-2" cx="1411" cy="153" r="1"/><circle class="cls-2" cx="1428" cy="171" r="1"/><circle class="cls-2" cx="1457" cy="140" r="1"/><circle class="cls-2" cx="1431" cy="186" r="1"/><circle class="cls-2" cx="1442" cy="157" r="2"/><circle class="cls-2" cx="1420" cy="142" r="2"/><circle class="cls-2" cx="1412" cy="173" r="2"/><circle class="cls-2" cx="1445" cy="179" r="2"/><circle class="cls-2" cx="1458" cy="206" r="1"/><circle class="cls-2" cx="1472" cy="192" r="2"/><circle class="cls-2" cx="1475" cy="214" r="2"/><circle class="cls-2" cx="1512" cy="170" r="1"/><circle class="cls-2" cx="1496" cy="172" r="2"/><circle class="cls-2" cx="1529" cy="178" r="2"/><circle class="cls-2" cx="1497" cy="138" r="1"/><circle class="cls-2" cx="1526" cy="107" r="1"/><circle class="cls-2" cx="1500" cy="153" r="1"/><circle class="cls-2" cx="1435" cy="240" r="1"/><circle class="cls-2" cx="1424" cy="196" r="2"/><circle class="cls-2" cx="1449" cy="233" r="2"/><circle class="cls-2" cx="1504" cy="207" r="1"/><circle class="cls-2" cx="1511" cy="124" r="2"/><circle class="cls-2" cx="1611" cy="196" r="1"/><circle class="cls-2" cx="1596" cy="164" r="1"/><circle class="cls-2" cx="1599" cy="179" r="1"/><circle class="cls-2" cx="1610" cy="150" r="2"/><circle class="cls-2" cx="1581" cy="137" r="1"/><circle class="cls-2" cx="1565" cy="139" r="2"/><circle class="cls-2" cx="1598" cy="145" r="2"/><circle class="cls-2" cx="1530" cy="209" r="1"/><circle class="cls-2" cx="1559" cy="178" r="1"/><circle class="cls-2" cx="1533" cy="224" r="1"/><circle class="cls-2" cx="1544" cy="195" r="2"/><circle class="cls-2" cx="1614" cy="208" r="1"/><circle class="cls-2" cx="1598" cy="210" r="2"/><circle class="cls-2" cx="1631" cy="216" r="2"/><circle class="cls-2" cx="1338" cy="420" r="1"/><circle class="cls-2" cx="1355" cy="438" r="1"/><circle class="cls-2" cx="1384" cy="407" r="1"/><circle class="cls-2" cx="1358" cy="453" r="1"/><circle class="cls-2" cx="1369" cy="424" r="2"/><circle class="cls-2" cx="1347" cy="409" r="2"/><circle class="cls-2" cx="1339" cy="440" r="2"/><circle class="cls-2" cx="1372" cy="446" r="2"/><circle class="cls-2" cx="1385" cy="473" r="1"/><circle class="cls-2" cx="1399" cy="459" r="2"/><circle class="cls-2" cx="1402" cy="481" r="2"/><circle class="cls-2" cx="1439" cy="437" r="1"/><circle class="cls-2" cx="1423" cy="439" r="2"/><circle class="cls-2" cx="1456" cy="445" r="2"/><circle class="cls-2" cx="1424" cy="405" r="1"/><circle class="cls-2" cx="1453" cy="374" r="1"/><circle class="cls-2" cx="1427" cy="420" r="1"/><circle class="cls-2" cx="1362" cy="507" r="1"/><circle class="cls-2" cx="1351" cy="463" r="2"/><circle class="cls-2" cx="1376" cy="500" r="2"/><circle class="cls-2" cx="1431" cy="474" r="1"/><circle class="cls-2" cx="1438" cy="391" r="2"/><circle class="cls-2" cx="1538" cy="463" r="1"/><circle class="cls-2" cx="1523" cy="431" r="1"/><circle class="cls-2" cx="1526" cy="446" r="1"/><circle class="cls-2" cx="1537" cy="417" r="2"/><circle class="cls-2" cx="1508" cy="404" r="1"/><circle class="cls-2" cx="1492" cy="406" r="2"/><circle class="cls-2" cx="1525" cy="412" r="2"/><circle class="cls-2" cx="1457" cy="476" r="1"/><circle class="cls-2" cx="1486" cy="445" r="1"/><circle class="cls-2" cx="1460" cy="491" r="1"/><circle class="cls-2" cx="1471" cy="462" r="2"/><circle class="cls-2" cx="1541" cy="475" r="1"/><circle class="cls-2" cx="1525" cy="477" r="2"/><circle class="cls-2" cx="1558" cy="483" r="2"/><circle class="cls-2" cx="1606" cy="276" r="1"/><circle class="cls-2" cx="1623" cy="294" r="1"/><circle class="cls-2" cx="1652" cy="263" r="1"/><circle class="cls-2" cx="1626" cy="309" r="1"/><circle class="cls-2" cx="1637" cy="280" r="2"/><circle class="cls-2" cx="1615" cy="265" r="2"/><circle class="cls-2" cx="1607" cy="296" r="2"/><circle class="cls-2" cx="1640" cy="302" r="2"/><circle class="cls-2" cx="1653" cy="329" r="1"/><circle class="cls-2" cx="1667" cy="315" r="2"/><circle class="cls-2" cx="1670" cy="337" r="2"/><circle class="cls-2" cx="1707" cy="293" r="1"/><circle class="cls-2" cx="1691" cy="295" r="2"/><circle class="cls-2" cx="1724" cy="301" r="2"/><circle class="cls-2" cx="1692" cy="261" r="1"/><circle class="cls-2" cx="1721" cy="230" r="1"/><circle class="cls-2" cx="1695" cy="276" r="1"/><circle class="cls-2" cx="1630" cy="363" r="1"/><circle class="cls-2" cx="1619" cy="319" r="2"/><circle class="cls-2" cx="1644" cy="356" r="2"/><circle class="cls-2" cx="1699" cy="330" r="1"/><circle class="cls-2" cx="1706" cy="247" r="2"/><circle class="cls-2" cx="1806" cy="319" r="1"/><circle class="cls-2" cx="1791" cy="287" r="1"/><circle class="cls-2" cx="1794" cy="302" r="1"/><circle class="cls-2" cx="1805" cy="273" r="2"/><circle class="cls-2" cx="1776" cy="260" r="1"/><circle class="cls-2" cx="1760" cy="262" r="2"/><circle class="cls-2" cx="1793" cy="268" r="2"/><circle class="cls-2" cx="1725" cy="332" r="1"/><circle class="cls-2" cx="1754" cy="301" r="1"/><circle class="cls-2" cx="1728" cy="347" r="1"/><circle class="cls-2" cx="1739" cy="318" r="2"/><circle class="cls-2" cx="1809" cy="331" r="1"/><circle class="cls-2" cx="1793" cy="333" r="2"/><circle class="cls-2" cx="1826" cy="339" r="2"/><circle class="cls-2" cx="1262" cy="280" r="1"/><circle class="cls-2" cx="1279" cy="298" r="1"/><circle class="cls-2" cx="1308" cy="267" r="1"/><circle class="cls-2" cx="1282" cy="313" r="1"/><circle class="cls-2" cx="1293" cy="284" r="2"/><circle class="cls-2" cx="1271" cy="269" r="2"/><circle class="cls-2" cx="1263" cy="300" r="2"/><circle class="cls-2" cx="1296" cy="306" r="2"/><circle class="cls-2" cx="1309" cy="333" r="1"/><circle class="cls-2" cx="1323" cy="319" r="2"/><circle class="cls-2" cx="1326" cy="341" r="2"/><circle class="cls-2" cx="1363" cy="297" r="1"/><circle class="cls-2" cx="1347" cy="299" r="2"/><circle class="cls-2" cx="1380" cy="305" r="2"/><circle class="cls-2" cx="1348" cy="265" r="1"/><circle class="cls-2" cx="1377" cy="234" r="1"/><circle class="cls-2" cx="1351" cy="280" r="1"/><circle class="cls-2" cx="1286" cy="367" r="1"/><circle class="cls-2" cx="1275" cy="323" r="2"/><circle class="cls-2" cx="1300" cy="360" r="2"/><circle class="cls-2" cx="1355" cy="334" r="1"/><circle class="cls-2" cx="1362" cy="251" r="2"/><circle class="cls-2" cx="1462" cy="323" r="1"/><circle class="cls-2" cx="1447" cy="291" r="1"/><circle class="cls-2" cx="1450" cy="306" r="1"/><circle class="cls-2" cx="1461" cy="277" r="2"/><circle class="cls-2" cx="1432" cy="264" r="1"/><circle class="cls-2" cx="1416" cy="266" r="2"/><circle class="cls-2" cx="1449" cy="272" r="2"/><circle class="cls-2" cx="1381" cy="336" r="1"/><circle class="cls-2" cx="1410" cy="305" r="1"/><circle class="cls-2" cx="1384" cy="351" r="1"/><circle class="cls-2" cx="1395" cy="322" r="2"/><circle class="cls-2" cx="1465" cy="335" r="1"/><circle class="cls-2" cx="1449" cy="337" r="2"/><circle class="cls-2" cx="1482" cy="343" r="2"/></svg>