<svg id="Calque_1" data-name="Calque 1" xmlns="http://www.w3.org/2000/svg" xmlns:xlink="http://www.w3.org/1999/xlink" viewBox="0 0 1920 1080"><defs><style>.cls-1{fill:url(#Dégradé_sans_nom_319);}.cls-2{fill:url(#Dégradé_sans_nom_320);}</style><linearGradient id="Dégradé_sans_nom_319" x1="1723.15" y1="70.21" x2="1806.66" y2="209.67" gradientUnits="userSpaceOnUse"><stop offset="0" stop-color="#fff"/><stop offset="0.21" stop-color="#dee9f0"/><stop offset="0.4" stop-color="#bed4e1"/><stop offset="0.5" stop-color="#b6c3de"/><stop offset="0.7" stop-color="#a8a6d8"/><stop offset="0.87" stop-color="#9f94d5"/><stop offset="1" stop-color="#9c8ed4"/></linearGradient><linearGradient id="Dégradé_sans_nom_320" x1="1690.75" y1="61.74" x2="1854.04" y2="224.09" gradientUnits="userSpaceOnUse"><stop offset="0" stop-color="#fff"/><stop offset="0.17" stop-color="#fcfdfe"/><stop offset="0.29" stop-color="#f3f7f9"/><stop offset="0.4" stop-color="#e3edf2"/><stop offset="0.5" stop-color="#cddee8"/><stop offset="0.55" stop-color="#bed4e1"/><stop offset="0.66" stop-color="#b1b9dc"/><stop offset="0.79" stop-color="#a5a1d8"/><stop offset="0.9" stop-color="#9e93d5"/><stop offset="1" stop-color="#9c8ed4"/></linearGradient></defs><title>planet2</title><g id="Planet1"><circle class="cls-1" cx="1761.66" cy="134.51" r="81.26"/><path class="cls-2" d="M1681.42,137.16c-23.62,25.94-33.8,51.79-24,68.37,16,26.95,78.84,19.19,140.37-17.33s98.44-88,82.44-114.92c-10.55-17.77-41.46-20.45-78.93-9.75a97.47,97.47,0,0,0,12.06,8c23.62-3.84,42.16-.06,49.38,12.1,13.49,22.72-17.63,66.09-69.5,96.88S1688.43,217.87,1675,195.15c-6.28-10.58-2.89-25.63,7.77-41.82"/></g></svg>