<svg id="Calque_1" data-name="Calque 1" xmlns="http://www.w3.org/2000/svg" xmlns:xlink="http://www.w3.org/1999/xlink" viewBox="0 0 1920 1080"><defs><style>.cls-1{fill:#ee6060;}.cls-2{fill:url(#Dégradé_sans_nom_294);}.cls-3{fill:url(#Dégradé_sans_nom_293);}.cls-4{fill:url(#Dégradé_sans_nom_282);}.cls-5{fill:url(#Dégradé_sans_nom_273);}.cls-6{fill:#ebeff2;}.cls-7{fill:url(#Dégradé_sans_nom_268);}.cls-8{fill:#1b1851;}.cls-9{fill:url(#Dégradé_sans_nom_217);}.cls-10{fill:url(#Dégradé_sans_nom_264);}.cls-11{fill:url(#Dégradé_sans_nom_255);}.cls-12{fill:url(#Dégradé_sans_nom_276);}.cls-13{fill:url(#Dégradé_sans_nom_278);}.cls-14{fill:url(#Dégradé_sans_nom_295);}</style><linearGradient id="Dégradé_sans_nom_294" x1="1723.88" y1="484.05" x2="1715.99" y2="483.95" gradientUnits="userSpaceOnUse"><stop offset="0" stop-color="#d4d6d8"/><stop offset="0.28" stop-color="#f2f3f3"/><stop offset="0.45" stop-color="#fff"/><stop offset="0.59" stop-color="#f9fafa"/><stop offset="0.77" stop-color="#e9eaeb"/><stop offset="0.93" stop-color="#d4d6d8"/></linearGradient><linearGradient id="Dégradé_sans_nom_293" x1="1748.62" y1="528.81" x2="1638.37" y2="527.46" gradientUnits="userSpaceOnUse"><stop offset="0" stop-color="#d4d6d8"/><stop offset="0.14" stop-color="#d8dadc"/><stop offset="0.27" stop-color="#e4e5e6"/><stop offset="0.41" stop-color="#f8f8f8"/><stop offset="0.45" stop-color="#fff"/><stop offset="0.59" stop-color="#f2f2f3"/><stop offset="0.93" stop-color="#d4d6d8"/></linearGradient><linearGradient id="Dégradé_sans_nom_282" x1="1623.6" y1="581.74" x2="1623.08" y2="482.45" gradientUnits="userSpaceOnUse"><stop offset="0" stop-color="#d4d6d8"/><stop offset="0.13" stop-color="#dadcde"/><stop offset="0.3" stop-color="#ebeced"/><stop offset="0.45" stop-color="#fff"/><stop offset="0.64" stop-color="#e2e3e4"/><stop offset="0.76" stop-color="#d4d6d8"/></linearGradient><radialGradient id="Dégradé_sans_nom_273" cx="1612.93" cy="407.24" r="109" gradientUnits="userSpaceOnUse"><stop offset="0" stop-color="#fff"/><stop offset="0.5" stop-color="#fdfdfd"/><stop offset="0.71" stop-color="#f6f6f7"/><stop offset="0.85" stop-color="#eaebec"/><stop offset="0.98" stop-color="#d9dadc"/><stop offset="1" stop-color="#d4d6d8"/></radialGradient><linearGradient id="Dégradé_sans_nom_268" x1="1537.97" y1="279.78" x2="1631.97" y2="569.21" gradientUnits="userSpaceOnUse"><stop offset="0" stop-color="#fff"/><stop offset="0.22" stop-color="#eeeff0"/><stop offset="0.54" stop-color="#dbddde"/><stop offset="0.76" stop-color="#d4d6d8"/><stop offset="1" stop-color="#bcbcbc"/></linearGradient><linearGradient id="Dégradé_sans_nom_217" x1="1487.95" y1="382.35" x2="1595.27" y2="427.81" gradientUnits="userSpaceOnUse"><stop offset="0" stop-color="#4e8fdd"/><stop offset="0" stop-color="#5190dd"/><stop offset="0" stop-color="#5a94db"/><stop offset="0" stop-color="#6b9ad9"/><stop offset="0" stop-color="#81a2d6"/><stop offset="0" stop-color="#9eadd2"/><stop offset="0" stop-color="#c2bacd"/><stop offset="0.01" stop-color="#eccac7"/><stop offset="0.01" stop-color="#fbcfc5"/><stop offset="0.21" stop-color="#ba9aa3"/><stop offset="0.41" stop-color="#816c86"/><stop offset="0.6" stop-color="#55476f"/><stop offset="0.77" stop-color="#352e5f"/><stop offset="0.9" stop-color="#221e55"/><stop offset="1" stop-color="#1b1851"/></linearGradient><linearGradient id="Dégradé_sans_nom_264" x1="1675.58" y1="386.47" x2="1701.39" y2="459.8" gradientUnits="userSpaceOnUse"><stop offset="0.25" stop-color="#fff"/><stop offset="0.44" stop-color="#fcfcfc"/><stop offset="0.57" stop-color="#f3f4f4"/><stop offset="0.68" stop-color="#e4e5e7"/><stop offset="0.76" stop-color="#d4d6d8"/></linearGradient><radialGradient id="Dégradé_sans_nom_255" cx="1652.78" cy="440.17" r="19.42" gradientUnits="userSpaceOnUse"><stop offset="0.12" stop-color="#fff"/><stop offset="0.59" stop-color="#fdfdfd"/><stop offset="0.76" stop-color="#f6f7f7"/><stop offset="0.88" stop-color="#ebebec"/><stop offset="0.97" stop-color="#dadcdd"/><stop offset="1" stop-color="#d4d6d8"/></radialGradient><linearGradient id="Dégradé_sans_nom_276" x1="1623.26" y1="479.75" x2="1623.76" y2="541.59" gradientUnits="userSpaceOnUse"><stop offset="0.25" stop-color="#fff"/><stop offset="0.55" stop-color="#e2e3e5"/><stop offset="0.76" stop-color="#d4d6d8"/></linearGradient><linearGradient id="Dégradé_sans_nom_278" x1="1623.85" y1="475.23" x2="1623.29" y2="528.31" gradientUnits="userSpaceOnUse"><stop offset="0.25" stop-color="#fff"/><stop offset="0.45" stop-color="#fcfdfd"/><stop offset="0.57" stop-color="#f4f4f5"/><stop offset="0.68" stop-color="#e6e7e8"/><stop offset="0.76" stop-color="#d4d6d8"/></linearGradient><linearGradient id="Dégradé_sans_nom_295" x1="1682.7" y1="554.21" x2="1622.07" y2="555.05" gradientUnits="userSpaceOnUse"><stop offset="0" stop-color="#d4d6d8"/><stop offset="0.13" stop-color="#e8e9ea"/><stop offset="0.29" stop-color="#f9f9fa"/><stop offset="0.4" stop-color="#fff"/><stop offset="0.51" stop-color="#fafafa"/><stop offset="0.63" stop-color="#ebeced"/><stop offset="0.76" stop-color="#d4d6d8"/></linearGradient></defs><title>spaceman</title><rect class="cls-1" x="1717" y="470" width="6" height="24" rx="3"/><rect class="cls-2" x="1717" y="474" width="6" height="20"/><path class="cls-3" d="M1738,508.62v22.62a324.18,324.18,0,0,1-30,14.34,379.63,379.63,0,0,1-57,18.51V508.62A16.67,16.67,0,0,1,1667.62,492h53.76A16.67,16.67,0,0,1,1738,508.62Z"/><path class="cls-4" d="M1708,545.58c-50.75,21.21-108.44,31-169,32.15v-24A33.85,33.85,0,0,1,1572.74,520h102.52A33.88,33.88,0,0,1,1708,545.58Z"/><path class="cls-5" d="M1729,404c0,2.47-.08,4.91-.25,7.34a106.48,106.48,0,0,1-1.45,11.93,108.83,108.83,0,0,1-90.15,88.37c-2.9.47-5.85.82-8.82,1q-4.12.32-8.33.32a109,109,0,0,1-97.35-158.07q1.5-3,3.16-5.81c1.27-2.18,2.61-4.3,4-6.38,2.06-3,4.26-5.94,6.6-8.73A109,109,0,0,1,1729,404Z"/><path class="cls-6" d="M1593.89,354.28,1543,377l-20.35-22.07c-.76,1.49-1.48,3-2.16,4.54-.17.36-.32.72-.48,1.08s-.41.95-.61,1.43c-.92,2.19-1.76,4.41-2.54,6.66-.15.45-.3.89-.44,1.34-.09.27-.18.54-.26.8-.16.5-.32,1-.47,1.5s-.32,1-.46,1.57-.28,1-.41,1.46q-.85,3.1-1.51,6.27c-.1.49-.2,1-.29,1.46-.07.31-.13.63-.18.95s-.18.93-.25,1.4c-.17,1-.33,1.94-.46,2.92-.06.35-.11.7-.15,1.06q-.39,2.85-.62,5.76c0,.39-.06.78-.09,1.17s0,.75-.07,1.13-.06,1-.08,1.47c0,.15,0,.3,0,.44,0,.44,0,.88,0,1.32s0,1,0,1.47,0,1.25,0,1.87q0,4.23.32,8.39c0,.48.07.95.12,1.43s.1,1.16.17,1.74c.08.77.17,1.55.27,2.32s.24,1.82.38,2.72c.09.64.2,1.28.31,1.92.06.38.13.75.19,1.12L1513,425c.08.43.17.87.26,1.3s.18.89.29,1.33.25,1.15.39,1.72c0,.19.09.37.14.56.13.57.27,1.13.43,1.7s.25,1,.39,1.45.26,1,.4,1.44.23.78.35,1.17.22.72.34,1.08c.19.64.4,1.28.62,1.91.06.2.13.41.21.61.16.52.35,1,.54,1.55s.3.85.47,1.28.35.95.54,1.43.28.73.43,1.09.3.76.46,1.14.41,1,.63,1.46.39.91.6,1.36c.09.22.19.43.29.64q.39.88.81,1.74c.33.69.66,1.37,1,2s.78,1.54,1.19,2.3.78,1.44,1.18,2.15l.21.36c.3.55.62,1.09,1,1.63q.87,1.48,1.8,2.94,2.19,3.45,4.64,6.73c1.58,2.12,3.25,4.19,5,6.2l.44.5c.5.56,1,1.12,1.5,1.67s1.18,1.28,1.78,1.91l.41.42c.52.54,1,1.07,1.57,1.59s1.26,1.24,1.9,1.84l0,.05c6.58.63,13.19-1.29,19.77-6.32,55.91-42.75,42.87-99.7,36.46-118.6Z"/><path class="cls-7" d="M1650.05,508.79a108,108,0,0,1-12.9,2.85c-2.9.47-5.85.82-8.82,1q-4.12.32-8.33.32a109,109,0,0,1-97.35-158.07q1.5-3,3.16-5.81c1.27-2.18,2.61-4.3,4-6.38,2.06-3,4.26-5.94,6.6-8.73,15.48.11,34.63,2.51,53.58,10.78,27.54,12,54.64,36.45,69.34,84.22C1668.94,460.14,1663.49,486.62,1650.05,508.79Z"/><path class="cls-8" d="M1628.33,512.68q-4.12.32-8.33.32a109,109,0,0,1-94.19-163.88c13.75-1.7,38.66-2.51,63.16,8.18,23.45,10.24,46.52,31,59,71.7C1658.56,463.32,1647.67,491,1628.33,512.68Z"/><path class="cls-9" d="M1585,448c-12.84,21.29-32.31,25.22-52.45,21.09a109.08,109.08,0,0,1-6.74-120c13.75-1.7,38.66-2.51,63.16,8.18C1599.17,380.61,1605.59,413.86,1585,448Z"/><path class="cls-10" d="M1728.75,411.34a106.48,106.48,0,0,1-1.45,11.93c-18.32,7.19-55,21-68.3,21.73-18,1,0-11.32,0-11.32S1701.78,423.6,1728.75,411.34Z"/><circle class="cls-11" cx="1657" cy="440" r="17"/><rect class="cls-12" x="1555" y="498" width="137" height="22" rx="8"/><rect class="cls-13" x="1555" y="505" width="137" height="7" rx="3.5"/><path class="cls-14" d="M1673.74,557.88q-11.21,3.42-22.74,6.21-7.44,1.81-15,3.36V561a19,19,0,0,1,37.74-3.12Z"/></svg>