<svg id="Calque_1" data-name="Calque 1" xmlns="http://www.w3.org/2000/svg" viewBox="0 0 1920 1080"><defs><style>.cls-1{fill:#fff;}</style></defs><title>background</title><path class="cls-1" d="M0,0V1080H1920V0ZM1859.25,310.19c0,.14,0,.29-.07.43a202.61,202.61,0,0,1-4.49,21.72c-.31,1.18-.63,2.36-1,3.53-.25.92-.5,1.84-.78,2.75-24.8,85.95-78.19,114.67-113,131.34l-2.62,1.26c-2.38,1.12-4.67,2.21-6.83,3.25-9.52,4.56-26.49,8.6-48.17,10.79-35.45,3.58-83.49,2.18-132.07-10-29.39-7.37-59-18.7-86.08-35.27-21.35-13-38.23-26.4-51.65-39.77-20.14-20.07-32.45-40.16-40.27-59.18-9.31-22.69-12.24-43.87-14.43-61.74-.45-3.61-.86-7.09-1.29-10.41-5.52-42.78,27-84.69,92.45-128.34,54.06-36,138.22-63.23,182.91-75a188.19,188.19,0,0,1,84-3.17c63.5,12.33,88.67,51.61,97.41,65.81,8.63,14,45,70.13,48,141.39A212.09,212.09,0,0,1,1859.25,310.19Z"/></svg>