<svg id="Calque_1" data-name="Calque 1" xmlns="http://www.w3.org/2000/svg" xmlns:xlink="http://www.w3.org/1999/xlink" viewBox="0 0 1920 1080"><defs><style>.cls-1{fill:url(#Dégradé_sans_nom_57);}.cls-2{fill:#fff;}.cls-2,.cls-5{opacity:0.4;}.cls-3{fill:#b25c7a;opacity:0.2;}.cls-4{fill:#d88895;opacity:0.3;}.cls-5{fill:#e7b1a8;}.cls-6{fill:#f0d7b8;opacity:0.6;}.cls-7{fill:#f3eecb;}</style><linearGradient id="Dégradé_sans_nom_57" x1="1628.49" y1="348.49" x2="1556.54" y2="50.62" gradientUnits="userSpaceOnUse"><stop offset="0" stop-color="#fcd663"/><stop offset="0.11" stop-color="#f8c361"/><stop offset="0.31" stop-color="#ee985c"/><stop offset="0.34" stop-color="#ee9462"/><stop offset="0.53" stop-color="#ee8083"/><stop offset="0.57" stop-color="#e67a80"/><stop offset="0.63" stop-color="#d16977"/><stop offset="0.7" stop-color="#ae4e69"/><stop offset="0.76" stop-color="#8e355c"/><stop offset="0.79" stop-color="#833155"/><stop offset="0.85" stop-color="#652742"/><stop offset="0.92" stop-color="#391726"/></linearGradient></defs><title>bg</title><g id="bg"><g id="bg-2" data-name="bg"><path class="cls-1" d="M1859.25,310.19c0,.14,0,.29-.07.43a202.61,202.61,0,0,1-4.49,21.72c-.31,1.18-.63,2.36-1,3.53-.25.92-.5,1.84-.78,2.75-24.8,85.95-78.19,114.67-113,131.34l-2.62,1.26c-2.38,1.12-4.67,2.21-6.83,3.25-9.52,4.56-26.49,8.6-48.17,10.79-35.45,3.58-83.49,2.18-132.07-10-29.39-7.37-59-18.7-86.08-35.27-21.35-13-38.23-26.4-51.65-39.77-20.14-20.07-32.45-40.16-40.27-59.18-9.31-22.69-12.24-43.87-14.43-61.74-.45-3.61-.86-7.09-1.29-10.41-5.52-42.78,27-84.69,92.45-128.34,54.06-36,138.22-63.23,182.91-75a188.19,188.19,0,0,1,84-3.17c63.5,12.33,88.67,51.61,97.41,65.81,8.63,14,45,70.13,48,141.39A212.09,212.09,0,0,1,1859.25,310.19Z"/><circle class="cls-2" cx="1615.65" cy="105.97" r="0.75"/><circle class="cls-2" cx="1628.32" cy="119.4" r="0.75"/><circle class="cls-2" cx="1649.95" cy="96.28" r="0.75"/><circle class="cls-2" cx="1630.56" cy="130.58" r="0.75"/><circle class="cls-2" cx="1638.76" cy="108.96" r="1.49"/><circle class="cls-2" cx="1622.36" cy="97.77" r="1.49"/><circle class="cls-2" cx="1616.39" cy="120.89" r="1.49"/><circle class="cls-2" cx="1641" cy="125.36" r="1.49"/><circle class="cls-2" cx="1650.69" cy="145.49" r="0.75"/><circle class="cls-2" cx="1661.13" cy="135.05" r="1.49"/><circle class="cls-2" cx="1663.37" cy="151.46" r="1.49"/><circle class="cls-2" cx="1690.96" cy="118.65" r="0.75"/><circle class="cls-2" cx="1679.03" cy="120.14" r="1.49"/><circle class="cls-2" cx="1703.63" cy="124.62" r="1.49"/><circle class="cls-2" cx="1679.77" cy="94.79" r="0.75"/><circle class="cls-2" cx="1701.4" cy="71.68" r="0.75"/><circle class="cls-2" cx="1682.01" cy="105.97" r="0.75"/><circle class="cls-2" cx="1633.54" cy="170.85" r="0.75"/><circle class="cls-2" cx="1625.34" cy="138.04" r="1.49"/><circle class="cls-2" cx="1643.98" cy="165.63" r="1.49"/><circle class="cls-2" cx="1684.99" cy="146.24" r="0.75"/><circle class="cls-2" cx="1690.21" cy="84.35" r="1.49"/><circle class="cls-2" cx="1764.77" cy="138.04" r="0.75"/><circle class="cls-2" cx="1753.59" cy="114.18" r="0.75"/><circle class="cls-2" cx="1755.83" cy="125.36" r="0.75"/><circle class="cls-2" cx="1764.03" cy="103.74" r="1.49"/><circle class="cls-2" cx="1742.41" cy="94.04" r="0.75"/><circle class="cls-2" cx="1730.48" cy="95.54" r="1.49"/><circle class="cls-2" cx="1755.08" cy="100.01" r="1.49"/><circle class="cls-2" cx="1704.38" cy="147.73" r="0.75"/><circle class="cls-2" cx="1726" cy="124.62" r="0.75"/><circle class="cls-2" cx="1706.61" cy="158.91" r="0.75"/><circle class="cls-2" cx="1714.82" cy="137.29" r="1.49"/><circle class="cls-2" cx="1767.01" cy="146.98" r="0.75"/><circle class="cls-2" cx="1755.08" cy="148.48" r="1.49"/><circle class="cls-2" cx="1779.69" cy="152.95" r="1.49"/></g><circle class="cls-3" cx="1497.84" cy="244.66" r="111.1"/><circle class="cls-4" cx="1497.84" cy="244.66" r="90.97"/><circle class="cls-5" cx="1497.84" cy="244.66" r="72.33"/><circle class="cls-6" cx="1497.84" cy="244.66" r="60.4"/><circle class="cls-7" cx="1497.84" cy="244.66" r="46.23"/></g></svg>