<svg id="Calque_1" data-name="Calque 1" xmlns="http://www.w3.org/2000/svg" xmlns:xlink="http://www.w3.org/1999/xlink" viewBox="0 0 1920 1080"><defs><style>.cls-1{fill:url(#Dégradé_sans_nom_13);}</style><linearGradient id="Dégradé_sans_nom_13" x1="1621.35" y1="480.16" x2="1637.78" y2="338.91" gradientUnits="userSpaceOnUse"><stop offset="0" stop-color="#d73350"/><stop offset="0.04" stop-color="#db3b51"/><stop offset="0.21" stop-color="#e75353"/><stop offset="0.37" stop-color="#ee6155"/><stop offset="0.5" stop-color="#f16655"/><stop offset="0.71" stop-color="#f88e62"/><stop offset="0.89" stop-color="#fca96b"/><stop offset="1" stop-color="#feb36e"/></linearGradient></defs><title>bg1</title><path id="bg1" class="cls-1" d="M1859.18,310.62a202.61,202.61,0,0,1-4.49,21.72c-.31,1.18-.63,2.36-1,3.53-.25.92-.5,1.84-.78,2.75-24.8,85.95-78.19,114.67-113,131.34-3.33,1.6-6.5,3.09-9.45,4.51-25.09,12-102,20.43-180.24.77-29.39-7.37-59-18.7-86.08-35.27-21.35-13-38.23-26.4-51.65-39.77,15.27-4.33,115.94-32.75,146.17-38.27,32.74-6,79.51-11.95,138.76,0s134.08-23.89,159-49.27A9.78,9.78,0,0,1,1859.18,310.62Z"/></svg>