<svg id="Calque_1" data-name="Calque 1" xmlns="http://www.w3.org/2000/svg" xmlns:xlink="http://www.w3.org/1999/xlink" viewBox="0 0 1920 1080"><defs><style>.cls-1{fill:url(#Dégradé_sans_nom_19);}</style><linearGradient id="Dégradé_sans_nom_19" x1="1651.76" y1="439.39" x2="1598.94" y2="272.44" gradientUnits="userSpaceOnUse"><stop offset="0" stop-color="#8a2050"/><stop offset="0.12" stop-color="#a53450"/><stop offset="0.26" stop-color="#bd464f"/><stop offset="0.39" stop-color="#cb504f"/><stop offset="0.5" stop-color="#d0544f"/><stop offset="0.6" stop-color="#d66154"/><stop offset="0.77" stop-color="#e58463"/><stop offset="1" stop-color="#fcb879"/></linearGradient></defs><title>bg2</title><path id="bg2" class="cls-1" d="M1859.25,310.19c0,.14,0,.29-.07.43a202.61,202.61,0,0,1-4.49,21.72c-.31,1.18-.63,2.36-1,3.53-.25.92-.5,1.84-.78,2.75-24.8,85.95-78.19,114.67-113,131.34-3.33,1.6-6.5,3.09-9.45,4.51-25.09,12-102,20.43-180.24.77-29.39-7.37-59-18.7-86.08-35.27-21.35-13-38.23-26.4-51.65-39.77-20.14-20.07-32.45-40.16-40.27-59.18,18.94-10.48,45.2-21.5,70.39-20.3,47,2.24,117.06,14.91,166.28,0S1738.58,261.87,1859.25,310.19Z"/></svg>