<svg id="Calque_1" data-name="Calque 1" xmlns="http://www.w3.org/2000/svg" xmlns:xlink="http://www.w3.org/1999/xlink" viewBox="0 0 1920 1080"><defs><style>.cls-1{fill:url(#Dégradé_sans_nom_24);}</style><linearGradient id="Dégradé_sans_nom_24" x1="1566.29" y1="314.45" x2="1498.81" y2="181.17" gradientUnits="userSpaceOnUse"><stop offset="0" stop-color="#b83e4b"/><stop offset="0.17" stop-color="#cd5c54"/><stop offset="0.38" stop-color="#e37c5e"/><stop offset="0.5" stop-color="#eb8862"/><stop offset="0.58" stop-color="#f09669"/><stop offset="0.71" stop-color="#f7a873"/><stop offset="0.85" stop-color="#fcb378"/><stop offset="1" stop-color="#fdb77a"/></linearGradient></defs><title>bg3</title><path id="BG3" class="cls-1" d="M1682.34,485.26c-35.45,3.58-83.49,2.18-132.07-10-29.39-7.37-59-18.7-86.08-35.27-21.35-13-38.23-26.4-51.65-39.77-20.14-20.07-32.45-40.16-40.27-59.18-9.31-22.69-12.24-43.87-14.43-61.74,30.33,4.84,74.36,10.4,107.93,8.63,56.67-3,146.83-12.09,170-14.91,30.57-3.73,70.09-9.7,131.23,28.33C1782.09,310.71,1725.87,411.9,1682.34,485.26Z"/></svg>