<svg id="Calque_1" data-name="Calque 1" xmlns="http://www.w3.org/2000/svg" xmlns:xlink="http://www.w3.org/1999/xlink" viewBox="0 0 1920 1080"><defs><style>.cls-1{fill:url(#Dégradé_sans_nom_13);}.cls-2{fill:url(#Dégradé_sans_nom_13-2);}</style><linearGradient id="Dégradé_sans_nom_13" x1="1658.23" y1="219.34" x2="1601.02" y2="180.24" gradientUnits="userSpaceOnUse"><stop offset="0" stop-color="#d73350"/><stop offset="0.04" stop-color="#db3b51"/><stop offset="0.21" stop-color="#e75353"/><stop offset="0.37" stop-color="#ee6155"/><stop offset="0.5" stop-color="#f16655"/><stop offset="0.71" stop-color="#f88e62"/><stop offset="0.89" stop-color="#fca96b"/><stop offset="1" stop-color="#feb36e"/></linearGradient><linearGradient id="Dégradé_sans_nom_13-2" x1="1675.96" y1="220.19" x2="1583.39" y2="187.55" xlink:href="#Dégradé_sans_nom_13"/></defs><title>planet1</title><g id="Planet1"><circle class="cls-1" cx="1638.88" cy="206.11" r="34.64"/><path class="cls-2" d="M1604.68,207.24c-10.07,11.06-14.41,22.08-10.22,29.15,6.82,11.49,33.61,8.18,59.84-7.39s42-37.5,35.14-49c-4.49-7.57-17.67-8.72-33.64-4.15a42.33,42.33,0,0,0,5.14,3.42c10.07-1.64,18,0,21,5.15,5.75,9.69-7.52,28.18-29.63,41.31s-44.69,15.91-50.44,6.22c-2.68-4.51-1.23-10.92,3.31-17.82"/></g></svg>