<svg id="Calque_1" data-name="Calque 1" xmlns="http://www.w3.org/2000/svg" viewBox="0 0 1920 1080"><defs><style>.cls-1{fill:#fff;}</style></defs><title>background</title><path class="cls-1" d="M1920,0V1080H0V0H1375.92s-1.75.12-4.91.39c-1.33.11-2.91.26-4.7.43-13.13,1.22-38.13,3.94-64.83,8.94-14.72,2.76-36.21,7.08-58.7,13l-3.94,1c-25.86,6.94-52.6,15.92-71.6,27-7.48,4.34-13.76,9-18.31,14-26.85,29.29-34.17,52.48-22,86.65,6.74,18.85,22.76,43.65,40.28,65.78,14.23,18,29.46,34.21,41.49,44.05,7.36,6,15.55,15,23.59,25.51,17.14,22.42,33.56,51.9,39.75,75a70.67,70.67,0,0,1,2.56,15.4c1.22,32.95,59.8,136.69,142.79,151.33,16.91,3,32.61,5.87,48.35,8,61.24,8.33,123.27,5.43,260.77-46.28l2.08-.78q6.57-2.49,13-5.19l2-.85,1.62-.7,2.86-1.26c9.16-4.08,18-8.5,26.57-13.18a390.68,390.68,0,0,0,55.32-36.82q10-7.94,19.28-16.26,7.52-6.72,14.56-13.62l3.15-3.11.22-.22q6-6,11.6-12c.76-.8,1.5-1.61,2.25-2.41s1.47-1.61,2.19-2.42,1.47-1.61,2.19-2.41l1.5-1.69A510,510,0,0,0,1919,337V0Z"/></svg>