<svg id="Calque_1" data-name="Calque 1" xmlns="http://www.w3.org/2000/svg" xmlns:xlink="http://www.w3.org/1999/xlink" viewBox="0 0 1920 1080"><defs><style>.cls-1{fill:#272532;}.cls-2{fill:url(#Dégradé_sans_nom_85);}.cls-3{fill:#fff;opacity:0.4;}.cls-4{fill:url(#Dégradé_sans_nom_152);}</style><linearGradient id="Dégradé_sans_nom_85" x1="1776.6" y1="468.69" x2="1394.69" y2="-101.83" gradientUnits="userSpaceOnUse"><stop offset="0" stop-color="#63dff9"/><stop offset="0.21" stop-color="#65e1fb"/><stop offset="0.43" stop-color="#74e7f0"/><stop offset="0.48" stop-color="#78e8ee"/><stop offset="0.49" stop-color="#75e3eb"/><stop offset="0.63" stop-color="#56b2ce"/><stop offset="0.73" stop-color="#4293bd"/><stop offset="0.79" stop-color="#3b88b6"/><stop offset="0.83" stop-color="#3982b0"/><stop offset="0.88" stop-color="#35729f"/><stop offset="0.94" stop-color="#2d5884"/><stop offset="1" stop-color="#233762"/></linearGradient><linearGradient id="Dégradé_sans_nom_152" x1="1400.73" y1="193.08" x2="1448.75" y2="402.48" gradientUnits="userSpaceOnUse"><stop offset="0" stop-color="#fffefc"/><stop offset="0.57" stop-color="#f9f7e7"/><stop offset="1" stop-color="#f6f3dd"/></linearGradient></defs><title>bg</title><g id="bg"><path class="cls-1" d="M1375.92,0s-1.75.12-4.91.39c-1.33.11-2.91.26-4.7.43-13.13,1.22-38.13,3.94-64.83,8.94-14.72,2.76-36.21,7.08-58.7,13l-3.94,1c-25.86,6.94-52.6,15.92-71.6,27-7.48,4.34-13.76,9-18.31,14-26.85,29.29-34.17,52.48-22,86.65,6.74,18.85,22.76,43.65,40.28,65.78,14.23,18,29.46,34.21,41.49,44.05,7.36,6,15.55,15,23.59,25.51,17.14,22.42,33.56,51.9,39.75,75a70.67,70.67,0,0,1,2.56,15.4c1.22,32.95,59.8,136.69,142.79,151.33,16.91,3,32.61,5.87,48.35,8,61.24,8.33,123.27,5.43,260.77-46.28l2.08-.78q6.57-2.49,13-5.19l2-.85,1.62-.7,2.86-1.26c9.16-4.08,18-8.5,26.57-13.18a390.68,390.68,0,0,0,55.32-36.82q10-7.94,19.28-16.26,7.52-6.72,14.56-13.62l3.15-3.11.22-.22q6-6,11.6-12c.76-.8,1.5-1.61,2.25-2.41s1.47-1.61,2.19-2.42,1.47-1.61,2.19-2.41l1.5-1.69A510,510,0,0,0,1919,337V0Z"/><path class="cls-2" d="M1919,0V337a510,510,0,0,1-32.12,40.2l-1.5,1.69c-.72.8-1.45,1.61-2.19,2.41s-1.46,1.61-2.19,2.42-1.49,1.61-2.25,2.41q-5.62,6-11.6,12l-.22.22-3.15,3.11q-7,6.88-14.56,13.62-9.27,8.31-19.28,16.26a390.68,390.68,0,0,1-55.32,36.82c-8.56,4.68-17.41,9.1-26.57,13.18l-2.86,1.26-1.62.7-2,.85q-6.39,2.71-13,5.19l-2.08.78C1589,541.87,1527,544.77,1465.77,536.44c-15.74-2.14-31.44-5-48.35-8-83-14.64-141.57-118.38-142.79-151.33a70.67,70.67,0,0,0-2.56-15.4c-6.19-23.13-22.61-52.61-39.75-75-8-10.52-16.23-19.48-23.59-25.51-12-9.84-27.26-26.06-41.49-44.05-17.52-22.13-33.54-46.93-40.28-65.78-12.2-34.17-4.88-57.36,22-86.65,4.55-5,10.83-9.62,18.31-14,19-11,45.74-20,71.6-26.95l3.94-1c22.49-5.9,44-10.22,58.7-13,26.7-5,51.7-7.72,64.83-8.94,1.79-.17,3.37-.32,4.7-.43,3.16-.27,4.91-.39,4.91-.39Z"/><circle class="cls-3" cx="1430.84" cy="80.55" r="1.22"/><circle class="cls-3" cx="1451.59" cy="102.51" r="1.22"/><circle class="cls-3" cx="1486.98" cy="64.68" r="1.22"/><circle class="cls-3" cx="1455.25" cy="120.82" r="1.22"/><circle class="cls-3" cx="1468.67" cy="85.43" r="2.44"/><circle class="cls-3" cx="1441.83" cy="67.12" r="2.44"/><circle class="cls-3" cx="1432.06" cy="104.95" r="2.44"/><circle class="cls-3" cx="1472.34" cy="112.28" r="2.44"/><circle class="cls-3" cx="1488.2" cy="145.23" r="1.22"/><circle class="cls-3" cx="1505.29" cy="128.14" r="2.44"/><circle class="cls-3" cx="1508.95" cy="154.99" r="2.44"/><circle class="cls-3" cx="1554.1" cy="101.29" r="1.22"/><circle class="cls-3" cx="1534.58" cy="103.73" r="2.44"/><circle class="cls-3" cx="1574.85" cy="111.06" r="2.44"/><circle class="cls-3" cx="1535.8" cy="62.24" r="1.22"/><circle class="cls-3" cx="1571.19" cy="24.41" r="1.22"/><circle class="cls-3" cx="1539.46" cy="80.55" r="1.22"/><circle class="cls-3" cx="1460.13" cy="186.72" r="1.22"/><circle class="cls-3" cx="1446.71" cy="133.02" r="2.44"/><circle class="cls-3" cx="1477.22" cy="178.18" r="2.44"/><circle class="cls-3" cx="1544.34" cy="146.45" r="1.22"/><circle class="cls-3" cx="1552.88" cy="45.15" r="2.44"/><circle class="cls-3" cx="1674.92" cy="133.02" r="1.22"/><circle class="cls-3" cx="1656.62" cy="93.97" r="1.22"/><circle class="cls-3" cx="1660.28" cy="112.28" r="1.22"/><circle class="cls-3" cx="1673.7" cy="76.88" r="2.44"/><circle class="cls-3" cx="1638.31" cy="61.02" r="1.22"/><circle class="cls-3" cx="1618.78" cy="63.46" r="2.44"/><circle class="cls-3" cx="1659.06" cy="70.78" r="2.44"/><circle class="cls-3" cx="1576.07" cy="148.89" r="1.22"/><circle class="cls-3" cx="1611.46" cy="111.06" r="1.22"/><circle class="cls-3" cx="1579.73" cy="167.19" r="1.22"/><circle class="cls-3" cx="1593.15" cy="131.8" r="2.44"/><circle class="cls-3" cx="1678.58" cy="147.67" r="1.22"/><circle class="cls-3" cx="1659.06" cy="150.11" r="2.44"/><circle class="cls-3" cx="1699.33" cy="157.43" r="2.44"/><circle class="cls-3" cx="1130.63" cy="144.01" r="1.22"/><circle class="cls-3" cx="1151.37" cy="165.97" r="1.22"/><circle class="cls-3" cx="1186.76" cy="128.14" r="1.22"/><circle class="cls-3" cx="1155.03" cy="184.28" r="1.22"/><circle class="cls-3" cx="1168.46" cy="148.89" r="2.44"/><circle class="cls-3" cx="1141.61" cy="130.58" r="2.44"/><circle class="cls-3" cx="1172.12" cy="175.74" r="2.44"/><circle class="cls-3" cx="1187.98" cy="208.69" r="1.22"/><circle class="cls-3" cx="1205.07" cy="191.6" r="2.44"/><circle class="cls-3" cx="1208.73" cy="218.45" r="2.44"/><circle class="cls-3" cx="1253.89" cy="164.75" r="1.22"/><circle class="cls-3" cx="1234.36" cy="167.19" r="2.44"/><circle class="cls-3" cx="1274.63" cy="174.52" r="2.44"/><circle class="cls-3" cx="1235.58" cy="125.7" r="1.22"/><circle class="cls-3" cx="1270.97" cy="87.87" r="1.22"/><circle class="cls-3" cx="1239.24" cy="144.01" r="1.22"/><circle class="cls-3" cx="1244.12" cy="209.91" r="1.22"/><circle class="cls-3" cx="1252.66" cy="108.62" r="2.44"/><circle class="cls-3" cx="1374.7" cy="196.48" r="1.22"/><circle class="cls-3" cx="1356.4" cy="157.43" r="1.22"/><circle class="cls-3" cx="1360.06" cy="175.74" r="1.22"/><circle class="cls-3" cx="1373.48" cy="140.35" r="2.44"/><circle class="cls-3" cx="1338.09" cy="124.48" r="1.22"/><circle class="cls-3" cx="1318.57" cy="126.92" r="2.44"/><circle class="cls-3" cx="1358.84" cy="134.24" r="2.44"/><circle class="cls-3" cx="1275.85" cy="212.35" r="1.22"/><circle class="cls-3" cx="1311.24" cy="174.52" r="1.22"/><circle class="cls-3" cx="1279.51" cy="230.65" r="1.22"/><circle class="cls-3" cx="1292.94" cy="195.26" r="2.44"/><circle class="cls-3" cx="1378.37" cy="211.13" r="1.22"/><circle class="cls-3" cx="1358.84" cy="213.57" r="2.44"/><circle class="cls-3" cx="1399.11" cy="220.89" r="2.44"/><circle class="cls-3" cx="1281.95" cy="34.17" r="1.22"/><circle class="cls-3" cx="1299.04" cy="17.09" r="2.44"/><circle class="cls-3" cx="1302.7" cy="43.93" r="2.44"/><path class="cls-3" d="M1371,.39a2.45,2.45,0,0,1-2.41,2.05,2.44,2.44,0,0,1-2.29-1.62C1368.1.65,1369.68.5,1371,.39Z"/><circle class="cls-3" cx="1253.89" cy="75.66" r="1.22"/><path class="cls-3" d="M1242.78,22.74a2.48,2.48,0,0,1-2.32,1.67,2.31,2.31,0,0,1-1.62-.64Z"/><circle class="cls-3" cx="1270.97" cy="67.12" r="2.44"/><circle class="cls-3" cx="1338.09" cy="35.39" r="1.22"/><circle class="cls-3" cx="1468.67" cy="21.97" r="1.22"/><circle class="cls-3" cx="1454.03" cy="1.22" r="1.22"/><circle class="cls-3" cx="1369.82" cy="37.83" r="1.22"/><path class="cls-3" d="M1404,0a1.22,1.22,0,0,0,1.22,1.22A1.22,1.22,0,0,0,1406.43,0Z"/><circle class="cls-3" cx="1373.48" cy="56.14" r="1.22"/><circle class="cls-3" cx="1386.91" cy="20.75" r="2.44"/><circle class="cls-3" cx="1472.34" cy="36.61" r="1.22"/><circle class="cls-3" cx="1452.81" cy="39.05" r="2.44"/><circle class="cls-3" cx="1493.08" cy="46.37" r="2.44"/><circle class="cls-4" cx="1424.74" cy="297.78" r="107.39"/></g></svg>