<svg id="Calque_1" data-name="Calque 1" xmlns="http://www.w3.org/2000/svg" xmlns:xlink="http://www.w3.org/1999/xlink" viewBox="0 0 1920 1080"><defs><style>.cls-1{fill:url(#Dégradé_sans_nom_99);}.cls-2{fill:url(#Dégradé_sans_nom_95);}</style><linearGradient id="Dégradé_sans_nom_99" x1="1528.37" y1="477.97" x2="1444.94" y2="310.13" gradientUnits="userSpaceOnUse"><stop offset="0" stop-color="#6267ff"/><stop offset="0.02" stop-color="#636aff"/><stop offset="0.3" stop-color="#7595ff"/><stop offset="0.51" stop-color="#80b0ff"/><stop offset="0.64" stop-color="#84baff"/><stop offset="0.88" stop-color="#96e0ff"/><stop offset="1" stop-color="#9defff"/></linearGradient><linearGradient id="Dégradé_sans_nom_95" x1="1558.3" y1="593.93" x2="1558.67" y2="292.68" gradientUnits="userSpaceOnUse"><stop offset="0.13" stop-color="#7b4ce2"/><stop offset="0.23" stop-color="#794fe3"/><stop offset="0.32" stop-color="#7259e6"/><stop offset="0.39" stop-color="#676bea"/><stop offset="0.47" stop-color="#5883f1"/><stop offset="0.47" stop-color="#5784f1"/><stop offset="0.55" stop-color="#5a9df1"/><stop offset="0.66" stop-color="#5db4f2"/><stop offset="0.75" stop-color="#5fc1f2"/><stop offset="0.84" stop-color="#60c6f2"/></linearGradient></defs><title>bg1</title><g id="bg1"><path class="cls-1" d="M1741.58,484.19q-6.39,2.71-13,5.19l-2.08.78c-4.77,1.79-9.45,3.54-14.06,5.21L1705.2,498c-2.1.76-4.19,1.49-6.25,2.22-1.48.52-2.94,1.05-4.4,1.55l-4.34,1.51-4.29,1.48q-6.39,2.18-12.54,4.21c-1.36.45-2.72.9-4.07,1.33-2.25.74-4.47,1.45-6.67,2.15l-1.31.41c-1.32.43-2.63.83-3.93,1.24l-3.16,1c-2.09.65-4.17,1.28-6.22,1.89-13.34,4-25.77,7.39-37.45,10.23-.29.07-.59.13-.88.21l-2.27.53q-2.91.7-5.76,1.35c-.35.07-.69.14-1,.23l-5.32,1.17-.64.13-3.1.65c-1,.22-2,.43-3.06.62q-4.29.89-8.46,1.63l-3,.52-3.12.54c-.84.15-1.7.28-2.54.41l-3.39.54c-1.75.27-3.48.53-5.19.77a2.23,2.23,0,0,0-.36,0l-5.13.68c-2.93.37-5.8.7-8.63,1l-2.82.28c-1.46.15-2.9.27-4.33.39-1.87.15-3.71.28-5.55.41l-3.6.21-3.2.16c-1,.05-2.11.09-3.16.12-.26,0-.51,0-.77,0l-2.7.08h-.44c-.9,0-1.79,0-2.68.05-1.59,0-3.16,0-4.74,0h-.06l-3.79,0-.86,0c-1,0-2,0-3-.06h0c-.61,0-1.22,0-1.82,0s-1.1,0-1.63-.06c-1.77,0-3.54-.13-5.29-.22h-.24c-1.25-.06-2.47-.13-3.7-.21h-.46l-4.14-.3-4.39-.35h-.16l-1.42-.13-3-.29h-.11c-1.52-.15-3-.32-4.55-.49l-1-.11c-.31,0-.63-.09-.95-.12l-2.29-.27-.15,0-1-.13-1-.12c-.33-.05-.66-.1-1-.13l-3-.39-5.77-.82-3.09-.46-3-.46-6.37-1q-2.73-.43-5.47-.92c-8-1.36-16.22-2.83-24.7-4.33-83-14.64-141.57-118.38-142.79-151.33a70.67,70.67,0,0,0-2.56-15.4c13.45-3.77,32.34-7.47,57.48-9,59.8-3.66,119.6,23.19,140.34,34.17s91.53,57.36,141.57,68.35c7,1.52,14.55,3.24,22.49,5.07h0C1670.39,468.66,1714.41,479.27,1741.58,484.19Z"/><path class="cls-2" d="M1741.58,484.19q-6.39,2.71-13,5.19l-2.08.78c-4.77,1.79-9.45,3.54-14.06,5.21L1705.2,498c-2.1.76-4.19,1.49-6.25,2.22-1.48.52-2.94,1.05-4.4,1.55l-4.34,1.51-4.29,1.48q-6.39,2.18-12.54,4.21c-1.36.45-2.72.9-4.07,1.33l-6.67,2.15-1.31.41c-1.32.43-2.63.83-3.93,1.24l-3.16,1c-2.09.65-4.17,1.28-6.22,1.89-13.34,4-25.77,7.39-37.45,10.23-.29.07-.59.13-.88.21l-2.27.53c-1.94.47-3.87.91-5.76,1.35-.35.07-.69.14-1,.23l-5.32,1.17-.64.13-3.1.65c-1,.22-2,.43-3.06.62-2.86.58-5.69,1.11-8.46,1.63l-3,.52-3.12.54c-.84.15-1.7.28-2.54.41l-3.39.54c-1.75.27-3.48.53-5.19.77a2.23,2.23,0,0,0-.36,0l-5.13.68c-2.93.37-5.8.7-8.63,1l-2.82.28c-1.46.15-2.9.27-4.33.39-1.87.15-3.71.28-5.55.41l-3.6.21-3.2.16c-1,.05-2.11.09-3.16.12-.26,0-.51,0-.77,0l-2.7.08h-.44c-.9,0-1.79,0-2.68.05-1.59,0-3.16,0-4.74,0h-.06l-3.79,0-.86,0c-1,0-2,0-3-.06h0c-.61,0-1.22,0-1.82,0s-1.1,0-1.63-.06c-1.77,0-3.54-.13-5.29-.22h-.24l-2.72-.16-.64,0-.34,0h-.46l-4.14-.3-4.39-.35h-.16a.2.2,0,0,1-.1,0c-1.44-.12-2.88-.25-4.31-.4h-.11c-1.52-.15-3-.32-4.55-.49l-1-.11c-.31,0-.63-.09-.95-.12l-.79-.1-1.5-.17-.15,0-1-.13-1-.12c-.33-.05-.66-.1-1-.13l-3-.39c4.32-7.2,6.76-17.48-1.37-29.37-15.86-23.18-61-87.86-68.34-94s-43.93-48.81,2.44-46.37,78.11,35.39,96.41,43.93,81.77,40.28,117.16,46.38c7.9,1.35,15.23,2.41,21.88,3.24h0C1670.39,468.66,1714.41,479.27,1741.58,484.19Z"/></g></svg>