<svg id="Calque_1" data-name="Calque 1" xmlns="http://www.w3.org/2000/svg" xmlns:xlink="http://www.w3.org/1999/xlink" viewBox="0 0 1920 1080"><defs><style>.cls-1{fill:url(#Dégradé_sans_nom_105);}.cls-2{fill:url(#Dégradé_sans_nom_112);}</style><linearGradient id="Dégradé_sans_nom_105" x1="1702.1" y1="592.22" x2="1277.97" y2="316.15" gradientUnits="userSpaceOnUse"><stop offset="0.07" stop-color="#5b27d5"/><stop offset="0.15" stop-color="#5745dc"/><stop offset="0.24" stop-color="#545fe1"/><stop offset="0.33" stop-color="#5272e6"/><stop offset="0.42" stop-color="#507de8"/><stop offset="0.52" stop-color="#5081e9"/><stop offset="0.94" stop-color="#4d9ff1"/><stop offset="1" stop-color="#4ca4f2"/></linearGradient><linearGradient id="Dégradé_sans_nom_112" x1="1256.36" y1="292.1" x2="1345.64" y2="303.28" gradientUnits="userSpaceOnUse"><stop offset="0" stop-color="#6da5e3"/><stop offset="0.22" stop-color="#6eace5"/><stop offset="0.54" stop-color="#73beea"/><stop offset="0.91" stop-color="#79ddf2"/><stop offset="1" stop-color="#7be5f4"/></linearGradient></defs><title>bg2</title><g id="bg2"><path class="cls-1" d="M1741.58,484.19q-6.39,2.71-13,5.19l-2.08.78c-4.77,1.79-9.45,3.54-14.06,5.21L1705.2,498c-2.1.76-4.19,1.49-6.25,2.22-1.48.52-2.94,1.05-4.4,1.55l-4.34,1.51-4.29,1.48q-6.39,2.18-12.54,4.21c-1.36.45-2.72.9-4.07,1.33l-6.67,2.15-1.31.41c-1.32.43-2.63.83-3.93,1.24l-3.16,1c-2.09.65-4.17,1.28-6.22,1.89-13.34,4-25.77,7.39-37.45,10.23-.29.07-.59.13-.88.21l-2.27.53c-1.94.47-3.87.91-5.76,1.35-.35.07-.69.14-1,.23l-5.32,1.17-.64.13-3.1.65c-1,.22-2,.43-3.06.62-2.86.58-5.69,1.11-8.46,1.63l-3,.52-3.12.54c-.84.15-1.7.28-2.54.41l-3.39.54c-1.75.27-3.48.53-5.19.77a2.23,2.23,0,0,0-.36,0l-5.13.68c-2.93.37-5.8.7-8.63,1l-2.82.28c-1.46.15-2.9.27-4.33.39-1.87.15-3.71.28-5.55.41l-3.6.21-3.2.16c-1,.05-2.11.09-3.16.12-.26,0-.51,0-.77,0l-2.7.08h-.44c-.9,0-1.79,0-2.68.05-1.59,0-3.16,0-4.74,0h-.06l-3.79,0-.86,0c-1,0-2,0-3-.06h0c-.61,0-1.22,0-1.82,0s-1.1,0-1.63-.06c-1.77,0-3.54-.13-5.29-.22h-.24l-2.72-.16-.64,0-.69,0h-.11l-4.14-.3-4.39-.35h-.16a.2.2,0,0,1-.1,0l-1.32-.11-3-.29h-.11c-1.52-.15-3-.32-4.55-.49l-1-.11c-.31,0-.63-.09-.95-.12l-.79-.1-1.65-.19-1-.13-1-.12c-.33-.05-.66-.1-1-.13l-3-.39-5.77-.82-3.09-.46-3-.46-6.37-1q-2.73-.43-5.47-.92c-8-1.36-16.22-2.83-24.7-4.33-83-14.64-141.57-118.38-142.79-151.33a70.67,70.67,0,0,0-2.56-15.4c-3.16-11.81-9-25.3-16.24-38.65a284.23,284.23,0,0,0-23.51-36.38c16.28-7.38,44-17.41,76.82-19a174,174,0,0,1,40.55,2.66c72,13.42,235.53,156.21,286.79,177,12.58,5.09,91.52,32.13,105.56,37.23l-68.34-6.11s-3.31-8.44-6.1-8.54c-6-.19-17.83-7.63-33.62-9.57C1670.39,468.66,1714.41,479.27,1741.58,484.19Z"/><path class="cls-2" d="M1307,319.13a114.59,114.59,0,0,1-51.14,3.92,284.23,284.23,0,0,0-23.51-36.38c16.28-7.38,44-17.41,76.82-19,11.35,2.68,25.79,6.53,32,10C1352.13,283.74,1377.76,297.17,1307,319.13Z"/></g></svg>