<svg id="Calque_1" data-name="Calque 1" xmlns="http://www.w3.org/2000/svg" xmlns:xlink="http://www.w3.org/1999/xlink" viewBox="0 0 1920 1080"><defs><style>.cls-1{fill:url(#Dégradé_sans_nom_118);}.cls-2{fill:url(#Dégradé_sans_nom_125);}</style><linearGradient id="Dégradé_sans_nom_118" x1="1750.74" y1="442.03" x2="1833.52" y2="354.97" gradientUnits="userSpaceOnUse"><stop offset="0" stop-color="#26175c"/><stop offset="0.66" stop-color="#3040ab"/><stop offset="1" stop-color="#3452cf"/></linearGradient><linearGradient id="Dégradé_sans_nom_125" x1="1608.35" y1="446.81" x2="1728.19" y2="440.67" gradientUnits="userSpaceOnUse"><stop offset="0" stop-color="#4f78d7"/><stop offset="0.24" stop-color="#4e7cd8"/><stop offset="0.47" stop-color="#4a87dc"/><stop offset="0.69" stop-color="#449ae2"/><stop offset="0.91" stop-color="#3cb5ea"/><stop offset="1" stop-color="#38c2ee"/></linearGradient></defs><title>bg3</title><g id="bg3"><path class="cls-1" d="M1864.08,397.85l-.3,3.65c-25,24.45-54.59,47.79-89.16,66.7-8.56,4.68-17.41,9.1-26.57,13.18l-2.86,1.26-1.62.7-43-33,6.1-40.28s37.83-13.42,45.16-15.86,39-3.66,39-3.66h30.51Z"/><path class="cls-2" d="M1867.15,398.17l-.22.22c-29.84-5.31-130.83-15.86-149.91,15.93-14.12,23.55-6.55,36.48,3.25,46,5.44,5.26,10.79,10.77,15.06,13.82,3.63,2.59,7.45,5.78,12.7,7.26q-3.19,1.44-6.45,2.81-6.39,2.71-13,5.19l-2.08.78-37-17-22-10.11-78.1-35.9s19.53-1.22,28.07-2.44,86.65-24.41,98.85-26.85,68.35-12.21,96.42-9.76C1832.6,389.81,1855.39,395.15,1867.15,398.17Z"/></g></svg>