<svg id="Calque_1" data-name="Calque 1" xmlns="http://www.w3.org/2000/svg" xmlns:xlink="http://www.w3.org/1999/xlink" viewBox="0 0 1920 1080"><defs><style>.cls-1{fill:url(#Dégradé_sans_nom_140);}.cls-2{fill:url(#Dégradé_sans_nom_134);}</style><linearGradient id="Dégradé_sans_nom_140" x1="1634.71" y1="472.27" x2="1851.66" y2="312.78" gradientUnits="userSpaceOnUse"><stop offset="0" stop-color="#6a2cc4"/><stop offset="0.48" stop-color="#6c69da"/><stop offset="1" stop-color="#6eb0f3"/></linearGradient><linearGradient id="Dégradé_sans_nom_134" x1="1781.84" y1="449.01" x2="1631.18" y2="294.37" gradientUnits="userSpaceOnUse"><stop offset="0" stop-color="#6f2aaf"/><stop offset="0.32" stop-color="#6e32b4"/><stop offset="0.81" stop-color="#6c49c2"/><stop offset="1" stop-color="#6b53c8"/></linearGradient></defs><title>mountain1</title><g id="M1"><path class="cls-1" d="M1801.57,427.94c-10.39,4.29-21.48,8.58-32.3,12.62-34.38,12.84-66.28,23.19-66.28,23.19L1584.61,421s36.61-28.07,50-37.84,64.68-36.61,76.88-43.93c8.78-5.26,15-8.64,17.85-10.12l1.68-.86s82.39,54.11,117.46,65.49C1864.22,398.87,1836.73,413.42,1801.57,427.94Z"/><path class="cls-2" d="M1848.52,393.78l-47,34.16-19.86,14.45-12.44-1.83-135.55-19.9s7.64-3.9,19.84-13.66,25.63-23.19,30.51-30.51,11-18.3,23.19-25.63c10-6,19.09-17.61,22.12-21.71l1.68-.86S1813.45,382.4,1848.52,393.78Z"/></g></svg>