<svg id="Calque_1" data-name="Calque 1" xmlns="http://www.w3.org/2000/svg" xmlns:xlink="http://www.w3.org/1999/xlink" viewBox="0 0 1920 1080"><defs><style>.cls-1{fill:url(#Dégradé_sans_nom_149);}.cls-2{fill:url(#Dégradé_sans_nom_143);}</style><linearGradient id="Dégradé_sans_nom_149" x1="1761.64" y1="405.79" x2="1874.52" y2="310.44" gradientUnits="userSpaceOnUse"><stop offset="0" stop-color="#8571d0"/><stop offset="0.36" stop-color="#8c80d9"/><stop offset="1" stop-color="#9ca4ef"/></linearGradient><linearGradient id="Dégradé_sans_nom_143" x1="1809.01" y1="307.42" x2="1837.75" y2="432.74" gradientUnits="userSpaceOnUse"><stop offset="0" stop-color="#5e49a8"/><stop offset="0.28" stop-color="#5251a4"/><stop offset="0.79" stop-color="#32679b"/><stop offset="1" stop-color="#237196"/></linearGradient></defs><title>mountain2</title><g id="M2"><path class="cls-1" d="M1886.88,377.21l-1.5,1.69c-.72.8-1.45,1.61-2.19,2.41s-1.46,1.61-2.19,2.42-1.49,1.61-2.25,2.41q-5.62,6-11.6,12l-.22.22-3.15,3.11q-7,6.88-14.56,13.62-9.27,8.31-19.28,16.26l-92.78-88.45,45.16-23.19S1861.41,364.18,1886.88,377.21Z"/><path class="cls-2" d="M1886.88,377.21l-1.5,1.69c-.72.8-1.45,1.61-2.19,2.41s-1.46,1.61-2.19,2.42-1.49,1.61-2.25,2.41q-5.62,6-11.6,12l-.22.22-3.15,3.11q-7,6.88-14.56,13.62l-19.28,16.26L1756.69,349s23.19-25.63,25.63-29.29C1782.32,319.74,1861.41,364.18,1886.88,377.21Z"/></g></svg>