<svg id="Calque_1" data-name="Calque 1" xmlns="http://www.w3.org/2000/svg" xmlns:xlink="http://www.w3.org/1999/xlink" viewBox="0 0 1920 1080"><defs><style>.cls-1{fill:url(#Dégradé_sans_nom_156);}.cls-2{fill:url(#Dégradé_sans_nom_156-2);}</style><linearGradient id="Dégradé_sans_nom_156" x1="1688.8" y1="492.36" x2="1735.09" y2="530.23" gradientTransform="translate(67.39 -544.28) rotate(8.56)" gradientUnits="userSpaceOnUse"><stop offset="0" stop-color="#d7c7e8"/><stop offset="0.13" stop-color="#dfa5d7"/><stop offset="0.28" stop-color="#e785c6"/><stop offset="0.41" stop-color="#ec71bc"/><stop offset="0.5" stop-color="#ee6ab8"/><stop offset="0.6" stop-color="#e66fbe"/><stop offset="0.74" stop-color="#d17bcf"/><stop offset="0.91" stop-color="#af90ea"/><stop offset="1" stop-color="#9c9cfa"/></linearGradient><linearGradient id="Dégradé_sans_nom_156-2" x1="1691.07" y1="495.01" x2="1758.27" y2="546.61" xlink:href="#Dégradé_sans_nom_156"/></defs><title>planet</title><g id="Planet1"><circle class="cls-1" cx="1683.8" cy="215.8" r="29.9"/><path class="cls-2" d="M1654.46,212.37c-10,8.15-15.14,17-12.46,23.56,4.34,10.69,27.63,11.31,52,1.39s40.64-26.62,36.29-37.3c-2.86-7-14-9.71-28.18-7.87a34.5,34.5,0,0,0,4,3.58c8.8-.1,15.34,2.29,17.3,7.11,3.66,9-10,23.08-30.59,31.44s-40.19,7.84-43.85-1.16c-1.71-4.2.35-9.49,5.11-14.79"/></g></svg>